<svg width="40" height="42" viewBox="0 0 40 42" fill="none" xmlns="http://www.w3.org/2000/svg">
<path d="M36.1854 14.7134H34.8855V13.0085H11.0176V20.6377C11.0176 21.2344 11.1881 21.7885 11.2733 22.3639C7.52268 23.0032 5.64735 25.2408 5.56211 25.3687C5.43424 25.5392 5.43424 25.7523 5.5408 25.9228L5.77521 26.3277C3.17532 26.967 2.17372 29.1194 2.1311 29.2259C2.04586 29.4177 2.08848 29.6308 2.23765 29.78L2.59993 30.1423C1.29999 31.5488 0.277078 33.4028 0.234457 33.488C-0.127824 34.1274 -0.0638919 35.1076 0.383631 35.683L0.468873 35.7896C0.788532 36.2158 1.29999 36.4502 1.81144 36.4502C2.06717 36.4502 2.34421 36.3863 2.57862 36.2584C2.59993 36.2584 4.04905 35.4699 6.96861 34.4683L7.54399 35.0437C7.62924 35.1289 7.7571 35.1929 7.88496 35.1929C7.92758 35.1929 7.94889 35.1929 7.99152 35.1716L10.8045 34.5749L10.8898 34.7027C10.975 34.8519 11.1455 34.9372 11.316 34.9372H15.1945C15.365 34.9372 15.5355 34.8519 15.6207 34.7027L15.8338 34.3405L18.6255 34.9372C18.6681 34.9372 18.6894 34.9585 18.7321 34.9585C18.8599 34.9585 18.9878 34.9158 19.073 34.8093L19.6271 34.2552C22.4614 35.2142 23.9532 36.024 23.9745 36.024C24.2089 36.1519 24.4859 36.2158 24.7417 36.2158C25.2531 36.2158 25.7646 35.9814 26.0842 35.5552L26.1695 35.4486C26.5957 34.8519 26.6596 33.8929 26.3186 33.2536C26.2973 33.211 26.0203 32.7848 25.5728 32.1028C29.9841 30.9095 33.82 27.2866 34.8855 23.0245H36.1641C38.2952 23.0245 40 21 40 18.869C40 16.7379 38.0821 14.7134 36.1854 14.7134ZM11.87 13.861H34.0331V17.0576H11.87V13.861ZM2.06717 35.3634C1.81144 35.5125 1.42785 35.4273 1.23605 35.1716L1.15081 35.065C0.937706 34.788 0.916396 34.2339 1.08688 33.9356C1.10819 33.9142 2.08848 32.1242 3.30318 30.8029L6.1588 33.6585C3.47367 34.6175 2.1311 35.3421 2.06717 35.3634ZM8.01283 34.1487L3.19663 29.3112C3.5376 28.7358 4.49658 27.5211 6.30798 27.2014L10.2291 33.6798L8.01283 34.1487ZM14.8748 33.8716H11.5504L6.56371 25.667C7.22433 24.9851 9.3554 23.1524 13.2126 23.1524C17.0911 23.1524 19.2009 24.9638 19.8615 25.6457L14.8748 33.8716ZM18.5403 33.8929L16.3453 33.4454L20.2664 26.967C22.0778 27.2866 23.0155 28.5014 23.3565 29.0767L18.5403 33.8929ZM25.3383 34.8306L25.2531 34.9372C25.0826 35.1716 24.699 35.2568 24.422 35.129C24.3581 35.0863 22.9942 34.3618 20.3943 33.4454L23.2286 30.5898C24.422 31.911 25.4023 33.6798 25.4023 33.6798C25.5728 34.0208 25.5301 34.5536 25.3383 34.8306ZM24.9121 31.3144C24.6138 30.9094 24.2302 30.2914 23.8892 29.9079L24.2941 29.5243C24.4433 29.3751 24.4859 29.162 24.4007 28.9702C24.3581 28.8636 23.3778 26.7326 20.7779 26.0719L20.8844 25.9015C20.991 25.731 20.9697 25.4966 20.8631 25.3474C20.7566 25.2195 18.3911 22.1721 13.2126 22.1721C12.8503 22.1721 12.4241 22.1934 12.0832 22.2147C11.9979 21.682 11.87 21.1705 11.87 20.6164V17.91H34.0331V22.1721C34.0331 25.1556 30.2824 30.2488 24.9121 31.3144ZM36.1641 21.959H34.8855V15.7789H36.1641C37.7411 15.7789 38.9345 17.3559 38.9345 18.9116C38.9345 20.4886 37.7411 21.8951 36.1641 21.959Z" fill="#737373"/>
<path d="M25.9351 11.5167C25.9351 11.5167 25.9351 11.0479 25.9351 10.8774C25.9351 9.76923 26.2121 9.25778 26.5531 8.66108C27.0006 7.93652 27.3629 7.23327 27.3629 5.97595C27.3629 5.76284 27.1711 5.57104 26.958 5.57104C26.7449 5.57104 26.5744 5.76284 26.5744 5.95464C26.5744 7.06279 26.2547 7.61686 25.8924 8.21356C25.4449 8.93812 25.0826 9.68399 25.0826 10.9413C25.0826 11.1118 25.0826 11.4954 25.0826 11.4954H25.9351V11.5167Z" fill="#737373"/>
<path d="M23.3778 11.5168C23.3778 11.5168 23.3778 11.1119 23.3778 10.9414C23.3778 9.83324 23.6975 9.23654 24.0598 8.63984C24.5073 7.91528 24.8696 7.21203 24.8696 5.95471C24.8696 5.7416 24.6778 5.5498 24.4647 5.5498C24.2515 5.5498 24.0598 5.7416 24.0598 5.9334C24.0598 7.04155 23.7401 7.59562 23.3778 8.19232C22.9516 8.91688 22.5254 9.62013 22.5254 10.8775C22.5254 11.0479 22.5254 11.5168 22.5254 11.5168H23.3778Z" fill="#737373"/>
<path d="M20.8205 11.5168C20.8205 11.5168 20.8205 11.0267 20.8205 10.8775C20.8205 9.76934 21.2893 9.3005 21.6303 8.70381C22.0778 7.97925 22.4401 7.276 22.4401 6.01867C22.4401 5.80557 22.2483 5.61377 22.0352 5.61377C21.8221 5.61377 21.6303 5.80557 21.6303 5.99736C21.6303 7.10551 21.3106 7.65959 20.9483 8.25628C20.5008 8.98084 19.9467 9.59885 19.9467 10.8562C19.9467 11.1332 19.9254 11.1332 19.9467 11.4955H20.8205V11.5168Z" fill="#737373"/>
</svg>
