<svg width="29" height="42" viewBox="0 0 29 42" fill="none" xmlns="http://www.w3.org/2000/svg">
<path d="M26.4222 13.6593L14.9028 9.73222V8.92666C16.6347 7.83916 18.0444 6.95305 18.0444 5.18083C18.0444 3.34819 16.5542 1.85791 14.7215 1.85791C12.8889 1.85791 11.3986 3.34819 11.3986 5.18083C11.3986 5.48291 11.6403 5.70444 11.9222 5.70444C12.2243 5.70444 12.4458 5.46277 12.4458 5.18083C12.4458 3.93222 13.4528 2.92527 14.7014 2.92527C15.95 2.92527 16.9569 3.93222 16.9569 5.18083C16.9569 6.3086 16.0708 6.93291 14.2785 8.06069C14.2382 8.08083 13.8757 8.32249 13.8757 8.72527V9.73222L2.61806 13.76C0.946528 14.3239 0 15.2503 0 16.5794C0 18.2107 1.38958 19.56 3.02083 19.6003V35.9128H6.24306V40.1419H25.1736V19.6003H25.9792C27.6306 19.6003 29 18.4322 29 16.7808C29 15.4517 28.0736 14.2232 26.4222 13.6593ZM4.02778 34.9058V32.6906H18.9306V34.9058H4.02778ZM24.1667 18.5933H19.9375V18.251C19.9375 17.1635 20.7431 15.9753 21.75 15.9753C21.8104 15.9753 22.0924 15.9753 22.1528 15.9753C23.3208 15.9753 24.1667 17.0829 24.1667 18.251V18.5933ZM18.9306 18.251V18.5732V19.6405V31.6836H4.02778V18.1905C4.02778 16.7003 4.7125 15.9753 6.24306 15.9753H19.8972C19.2931 16.378 18.9306 17.4253 18.9306 18.251ZM24.1667 39.135H7.25V35.9128H19.9375V19.6003H24.1667V39.135ZM25.9792 18.5933H25.1736V18.1905C25.1736 16.4385 23.7639 14.9683 21.9514 14.9683C21.8306 14.9683 6.20278 14.9683 6.20278 14.9683C4.18889 14.9683 3.02083 15.9753 3.02083 18.1905V18.5933C1.97361 18.553 1.00694 17.6267 1.00694 16.5794C1.00694 15.7135 1.65139 15.0892 2.9 14.6662L14.2986 10.5378H14.5L26.0799 14.6662C27.3083 15.0892 27.9931 15.9149 27.9931 16.7808C27.9931 17.8482 27.0465 18.5933 25.9792 18.5933Z" fill="#737373"/>
</svg>
