<svg width="34" height="34" viewBox="0 0 34 34" fill="none" xmlns="http://www.w3.org/2000/svg">
<path d="M34 26.1001H0V27.1001H34V26.1001Z" fill="#737373"/>
<path d="M32.8199 24.3399C32.0199 16.4999 25.3999 10.3599 17.5999 10.0999V7.8999H19.5199C19.8199 7.8999 20.0599 7.6999 20.0599 7.3999C20.0599 7.0999 19.8199 6.8999 19.5199 6.8999H14.4599C14.1599 6.8999 13.9199 7.0999 13.9199 7.3999C13.9199 7.6999 14.1599 7.8999 14.4599 7.8999H16.3999V10.0999C8.59989 10.3799 1.97989 16.5199 1.17989 24.3599L1.13989 24.9199H32.8399L32.8199 24.3399ZM2.33989 23.8999C3.37989 16.6999 9.69989 11.1599 16.9999 11.1599C24.2999 11.1599 30.5999 16.6999 31.6399 23.8999H2.33989Z" fill="#737373"/>
<path d="M8.23999 19.2798C8.13999 19.2798 8.01999 19.2398 7.93999 19.1798C7.69999 18.9998 7.63999 18.6798 7.81999 18.4398C9.07999 16.6398 10.8 15.3198 12.76 14.6398C13.04 14.5398 13.34 14.6998 13.44 14.9798C13.54 15.2598 13.38 15.5598 13.1 15.6598C11.34 16.2598 9.81999 17.4398 8.67999 19.0598C8.57999 19.1998 8.39999 19.2798 8.23999 19.2798Z" fill="#737373"/>
</svg>
