<svg width="67" height="48" viewBox="0 0 67 48" fill="none" xmlns="http://www.w3.org/2000/svg">
<path d="M60.9735 31.9939L63.3841 29.3706C63.7386 29.5833 64.0931 29.6897 64.4831 29.6897C65.0503 29.6897 65.6175 29.477 66.0429 29.0516C66.8228 28.2717 66.9645 25.9675 67 25.5066C67 25.3648 66.9291 25.1876 66.8227 25.0812C66.7164 24.9749 66.5746 24.904 66.3974 24.9394C65.9365 24.9749 63.6323 25.1167 62.8524 25.8966C62.1079 26.641 62.0725 27.7754 62.6042 28.6262L60.9735 30.4341V26.6765C61.328 26.6765 62.3915 25.9675 62.3915 24.5495C62.3915 23.4505 60.9735 21.7135 60.6899 21.359C60.5836 21.2527 60.4063 21.1818 60.2645 21.1818C60.1227 21.1818 59.9455 21.2527 59.8392 21.359C59.5201 21.7135 58.1021 23.4505 58.1021 24.5495C58.1021 25.613 58.8466 26.4992 59.91 26.7119V30.3632L58.0667 28.5908C58.563 27.74 58.4212 26.6056 57.7122 25.8611C56.9323 25.0812 54.5926 24.9394 54.1672 24.904C53.9899 24.904 53.8481 24.9394 53.7418 25.0458C53.6354 25.1521 53.5646 25.2939 53.5646 25.4712C53.6 25.932 53.7418 28.2363 54.5217 29.0162C54.9471 29.4415 55.5143 29.6542 56.1169 29.6542C56.5069 29.6542 56.9677 29.5479 57.3222 29.3352L59.9455 31.8876V34.1209H50.0196V28.8035H51.7921C52.1111 28.8035 52.5011 28.449 52.5011 28.0945V25.613C52.5011 25.2585 52.1466 24.904 51.7921 24.904H46.1201V22.777H50.0196C50.3741 22.777 50.7286 22.4225 50.7286 22.068V19.5865C50.7286 19.232 50.3386 18.8775 50.0196 18.8775H46.1201V16.7505H50.0196C50.3741 16.7505 50.7286 16.396 50.7286 16.0416V13.5601C50.7286 13.2056 50.3741 12.8511 50.0196 12.8511H16.6614C16.3069 12.8511 15.9524 13.2056 15.9524 13.5601V16.0416C15.9524 16.396 16.3069 16.7505 16.6614 16.7505H20.2063V18.8775H16.6614C16.3069 18.8775 15.9524 19.232 15.9524 19.5865V22.068C15.9524 22.4225 16.3069 22.777 16.6614 22.777H20.2063V24.904H14.5344C14.1799 24.904 13.8254 25.2585 13.8254 25.613V28.0945C13.8254 28.449 14.1799 28.8035 14.5344 28.8035H16.3069V34.1209H6.73545V32.3484L8.75608 30.4341C9.11058 30.6468 9.46508 30.7532 9.85503 30.7532C10.4222 30.7532 10.9894 30.5405 11.4148 30.1151C12.1947 29.3352 12.3365 27.031 12.372 26.5701C12.372 26.4283 12.3365 26.2511 12.1947 26.1447C12.0884 26.0384 11.9466 25.9675 11.7693 26.0029C11.3085 26.0384 9.00423 26.1802 8.22434 26.9601C7.47989 27.7045 7.44444 28.8389 7.94074 29.6897L6.7 31.0013V26.6765L8.72063 24.6913C9.07513 24.904 9.42963 25.0103 9.81958 25.0103C10.3868 25.0103 10.954 24.7976 11.3794 24.3722C12.1593 23.5923 12.3011 21.2881 12.3365 20.8273C12.3365 20.6855 12.3011 20.5082 12.1593 20.4019C12.0529 20.2955 11.9111 20.2955 11.7339 20.331C11.273 20.3664 8.96878 20.65 8.18889 21.359C7.44444 22.068 7.40899 23.1315 7.90529 24.0177L6.66455 25.223V20.2955C7.37354 19.941 8.43704 19.5865 8.43704 18.1685C8.43704 17.0696 6.9836 15.1199 6.66455 14.8008C6.45185 14.5881 6.0619 14.5881 5.84921 14.8008C5.60106 15.1199 3.89947 17.105 3.89947 18.1685C3.89947 19.1611 4.60847 20.0119 5.67196 20.2955V25.2585L4.50212 24.0177C4.99841 23.1669 4.89206 22.068 4.14762 21.359H4.11217C3.33228 20.65 1.02804 20.3664 0.567196 20.331C0.425397 20.331 0.248148 20.331 0.141799 20.4373C0.0708995 20.5437 0 20.6855 0 20.8273C0.0354497 21.2881 0.177249 23.5923 0.957143 24.3722C1.38254 24.7976 1.94974 25.0103 2.55238 25.0103C2.94233 25.0103 3.40317 24.904 3.75767 24.6913L5.67196 26.6765V30.9304L4.50212 29.6542C4.99841 28.8035 4.85661 27.6691 4.14762 26.9246C3.36773 26.1447 1.06349 26.0029 0.602645 25.9675C0.460846 25.9675 0.283598 26.0029 0.177249 26.1093C0.0708995 26.2156 0 26.3574 0 26.5347C0.0354497 26.9955 0.177249 29.2998 0.957143 30.0796C1.38254 30.505 1.94974 30.7177 2.55238 30.7177C2.94233 30.7177 3.40317 30.6114 3.75767 30.3987L5.67196 32.2775V34.0855H0V35.149H16.0942H17.1931H48.4598H49.5587H67V34.0855H60.9735V31.9939ZM63.6323 26.641C63.8804 26.3929 64.873 26.1447 65.8302 26.0384C65.7238 26.9955 65.5111 27.9881 65.2275 28.2363C64.7667 28.6971 64.0577 28.6971 63.5968 28.2363C63.2069 27.8109 63.2069 27.0664 63.6323 26.641ZM55.2661 28.2363C55.018 27.9881 54.7698 26.9955 54.6635 26.0384C55.6206 26.1447 56.6132 26.3574 56.8614 26.641C57.3222 27.1019 57.3222 27.8109 56.8614 28.2717C56.436 28.6971 55.6915 28.6971 55.2661 28.2363ZM9.03968 27.7045C9.28783 27.4564 10.2804 27.2082 11.2376 27.1019C11.1312 28.059 10.9185 29.0516 10.6349 29.2998C10.1741 29.7606 9.46508 29.7606 9.00423 29.2998C8.57884 28.8744 8.57884 28.1654 9.03968 27.7045ZM9.03968 22.068C9.28783 21.7135 10.2804 21.5363 11.2376 21.4299C11.1312 22.3871 10.9185 23.3442 10.6349 23.5923C10.1741 24.0532 9.46508 24.0886 9.00423 23.6278C8.57884 23.2024 8.57884 22.4225 9.03968 22.068ZM1.73704 23.5923C1.48889 23.3442 1.24074 22.3871 1.13439 21.4299C2.09153 21.5363 3.08413 21.7135 3.33227 22.068C3.79312 22.4225 3.79312 23.2024 3.33227 23.6278C2.90688 24.0886 2.16243 24.0532 1.73704 23.5923ZM1.73704 29.3352C1.48889 29.0871 1.24074 28.0945 1.13439 27.1373C2.09153 27.2437 3.08413 27.4564 3.33227 27.74C3.79312 28.2008 3.79312 28.9098 3.33227 29.3706C2.90688 29.796 2.16243 29.796 1.73704 29.3352ZM5.10476 18.0976C5.10476 17.7431 5.63651 16.8923 6.23915 16.1124C6.8418 16.8569 7.37354 17.7077 7.37354 18.0976C7.37354 18.7357 6.87725 19.232 6.23915 19.232C5.63651 19.232 5.10476 18.7003 5.10476 18.0976ZM17.0159 15.6871V13.9146H49.6296V15.6871H21.2344H20.1354H17.0159ZM21.2698 16.7505H45.0212V18.8775H21.2698V16.7505ZM17.0159 19.941H49.6296V21.7135H17.0159V19.941ZM21.2698 22.777H45.0212V24.904H21.2698V22.777ZM14.8889 25.9675H51.4021V27.74H14.8889V25.9675ZM17.3704 34.1209V28.8035H48.9206V34.1209H17.3704ZM59.0947 24.5495C59.0947 24.195 59.6264 23.3442 60.2291 22.5643C60.8317 23.3087 61.3635 24.1595 61.3635 24.5495C61.3635 25.1876 60.8672 25.6839 60.2291 25.6839C59.591 25.6839 59.0947 25.1876 59.0947 24.5495Z" fill="#1E1E1E"/>
</svg>
