<svg width="70" height="65" viewBox="0 0 70 65" fill="none" xmlns="http://www.w3.org/2000/svg">
<path d="M18.9085 40.9345C17.1446 41.5357 15.267 41.7967 13.3906 41.7016C11.5142 41.6065 9.67846 41.1573 7.9957 40.3815C6.31294 39.6056 4.81855 38.5194 3.60399 37.1894C2.38943 35.8594 1.48024 34.3135 0.932063 32.6463C0.383882 30.9791 0.208238 29.2257 0.415879 27.4934C0.623521 25.761 1.21008 24.0862 2.13966 22.5714C3.06925 21.0566 4.3223 19.7337 5.82215 18.6836C7.322 17.6334 9.0371 16.8782 10.8625 16.4641V16.0477C10.8602 13.8866 11.4474 11.7601 12.5693 9.86598C13.6913 7.97189 15.3115 6.37183 17.2794 5.21468C19.2473 4.05753 21.4987 3.3809 23.8243 3.24774C26.1499 3.11459 28.474 3.52925 30.5803 4.45313C32.0284 2.68076 34.012 1.34788 36.2789 0.623998C38.5459 -0.0998841 40.9937 -0.182057 43.3112 0.387931C45.6286 0.957919 47.7109 2.15431 49.2933 3.82496C50.8756 5.4956 51.8866 7.56501 52.1975 9.76999C53.9498 10.0823 55.5548 10.8905 56.7915 12.0835C58.0283 13.2766 58.8361 14.7957 59.1039 16.4321C60.9724 16.8713 62.7212 17.6684 64.2377 18.7722C65.7542 19.8759 67.0048 21.2618 67.9091 22.8408C68.8134 24.4198 69.3514 26.1568 69.4884 27.9402C69.6255 29.7236 69.3586 31.5139 68.7049 33.1959C68.0512 34.8778 67.0252 36.4143 65.6928 37.7064C64.3605 38.9985 62.7513 40.0176 60.9688 40.6983C59.1863 41.3789 57.2699 41.7059 55.343 41.6583C53.416 41.6108 51.5211 41.1896 49.7802 40.422C47.9234 43.2184 45.1878 45.4204 41.9414 46.7318V57.6858L48.8478 60.8887V64.0916H21.2221V60.8887L28.1286 57.6858V48.077L18.9085 40.9345ZM17.7689 32.0624L28.1286 41.6711V32.0624H17.7689Z" fill="white"/>
</svg>
