<svg width="40" height="45" viewBox="0 0 40 45" fill="none" xmlns="http://www.w3.org/2000/svg">
<path d="M39.3882 29.906C37.5968 29.906 36.723 30.4522 35.8928 30.9546C35.1064 31.4134 34.3636 31.8503 32.9218 31.8503C31.4581 31.8503 30.7372 31.4134 29.9507 30.9546C29.0114 30.3866 28.0938 29.906 26.4554 29.906C24.664 29.906 23.7902 30.4522 22.96 30.9546C22.1736 31.4134 21.4308 31.8503 19.989 31.8503C18.5253 31.8503 17.8044 31.4134 17.0179 30.9546C16.0785 30.3866 15.161 29.906 13.5226 29.906C11.7312 29.906 10.8573 30.4522 10.0272 30.9546C9.24074 31.4134 8.49798 31.8503 7.05615 31.8503C5.59246 31.8503 4.87155 31.4134 4.08509 30.9546C3.14571 30.3866 2.22818 29.906 0.589733 29.906C0.327582 29.906 0.0654297 30.1682 0.0654297 30.4303C0.0654297 30.6925 0.327582 30.9546 0.589733 30.9546C2.05341 30.9546 2.77433 31.3915 3.56079 31.8503C4.50016 32.4183 5.4177 32.8989 7.05615 32.8989C8.84752 32.8989 9.72136 32.3528 10.5515 31.8503C11.338 31.3915 12.0807 30.9546 13.5226 30.9546C14.9862 30.9546 15.7072 31.3915 16.4936 31.8503C17.433 32.4183 18.3505 32.8989 19.989 32.8989C21.7803 32.8989 22.6542 32.3528 23.4843 31.8503L23.5717 31.8066C24.3145 31.3697 24.9917 30.9765 26.4554 30.9765C27.9191 30.9765 28.64 31.4134 29.4264 31.8721C30.3658 32.4401 31.2833 32.9208 32.9218 32.9208C34.7132 32.9208 35.587 32.3746 36.4172 31.8721C37.2036 31.4134 37.9464 30.9765 39.3882 30.9765C39.6504 30.9765 39.9125 30.7143 39.9125 30.4522C39.9125 30.19 39.6504 29.906 39.3882 29.906Z" fill="#737373"/>
<path d="M0.54615 27.8087C2.00983 27.8087 2.73075 28.2456 3.5172 28.7044C4.45658 29.2724 5.37411 29.753 7.01256 29.753C8.80393 29.753 9.67777 29.2068 10.5079 28.7044C11.2944 28.2456 12.0371 27.8087 13.479 27.8087C14.9427 27.8087 15.6636 28.2456 16.45 28.7044C17.3894 29.2724 18.3069 29.753 19.9454 29.753C21.7368 29.753 22.6106 29.2068 23.4407 28.7044L23.5281 28.6607C24.2709 28.2238 24.9481 27.8305 26.4118 27.8305C27.8755 27.8305 28.5964 28.2675 29.3829 28.7262C30.3222 29.2942 31.2398 29.7748 32.8782 29.7748C34.6696 29.7748 35.5434 29.2287 36.3736 28.7262C37.16 28.2675 37.9028 27.8305 39.3446 27.8305C39.6068 27.8305 39.8689 27.5684 39.8689 27.3062C39.8689 27.0441 39.6068 26.7819 39.3446 26.7819C37.5532 26.7819 36.6794 27.3281 35.8493 27.8305C35.0628 28.2893 34.32 28.7262 32.8782 28.7262C31.4145 28.7262 30.7155 28.2893 29.929 27.8305C28.9896 27.2625 28.0284 26.7819 26.4992 26.7819V10.0916C26.4992 7.6667 24.2927 5.67871 21.8678 5.67871C21.6057 5.67871 21.2343 5.94086 21.2343 6.20301C21.2343 6.46517 21.6712 6.72732 21.9334 6.72732C23.7466 6.72732 25.4069 8.21285 25.4069 10.0261V12.2107H14.7679V10.0916C14.7679 7.75408 12.8891 6.07194 10.3332 6.07194C10.071 6.07194 9.787 6.33409 9.787 6.59624C9.787 6.85839 10.0273 7.12055 10.2895 7.12055C11.207 7.12055 12.1027 7.40454 12.627 7.86331C13.2824 8.45315 13.6537 9.19591 13.6537 10.0261V26.8038C13.6537 26.8038 13.5227 26.7819 13.3916 26.7819C11.6002 26.7819 10.7919 27.3281 9.93992 27.8305C9.15347 28.2893 8.43255 28.7262 6.99072 28.7262C5.52703 28.7262 4.80612 28.2893 4.01966 27.8305C3.08028 27.2625 2.1846 26.7819 0.524304 26.7819C0.262152 26.7819 0 27.0441 0 27.3062C0.021846 27.5684 0.283998 27.8087 0.54615 27.8087ZM14.7679 13.303H25.4724V17.4537H14.7679V13.303ZM14.7679 18.546H25.4724V22.9152H14.7679V18.546ZM14.7679 24.0075H25.4724V26.8475C24.1617 27.0004 23.6374 27.4155 22.982 27.8305C22.1955 28.2893 21.4528 28.7262 19.9891 28.7262C18.5254 28.7262 17.7171 28.2893 16.9306 27.8305C16.2971 27.4373 15.6417 27.1096 14.7679 26.913V24.0075Z" fill="#737373"/>
<path d="M0.546032 34.1439C2.00971 34.1439 2.73063 34.5809 3.51709 35.0396C4.45646 35.6076 5.374 36.0882 7.01244 36.0882C8.80381 36.0882 9.67765 35.5421 10.5078 35.0396C11.2943 34.5809 12.037 34.1439 13.4789 34.1439C14.9425 34.1439 15.6635 34.5809 16.4499 35.0396C17.3893 35.6076 18.3068 36.0882 19.9453 36.0882C21.7366 36.0882 22.6105 35.5421 23.4406 35.0396L23.528 34.9959C24.2708 34.559 24.948 34.1658 26.4117 34.1658C27.8754 34.1658 28.5963 34.6027 29.3827 35.0615C30.3221 35.6295 31.2396 36.1101 32.8781 36.1101C34.6695 36.1101 35.5433 35.5639 36.3734 35.0615C37.1599 34.6027 37.9027 34.1658 39.3445 34.1658C39.6067 34.1658 39.8688 33.9036 39.8688 33.6415C39.8688 33.3793 39.6067 33.1172 39.3445 33.1172C37.5531 33.1172 36.6793 33.6633 35.8491 34.1658C35.0627 34.6246 34.3199 35.0615 32.8781 35.0615C31.4144 35.0615 30.6935 34.6246 29.907 34.1658C28.9677 33.5978 28.0501 33.1172 26.4117 33.1172C24.6203 33.1172 23.7465 33.6633 22.9163 34.1658C22.1299 34.6246 21.3871 35.0615 19.9453 35.0615C18.4816 35.0615 17.7607 34.6246 16.9742 34.1658C16.0348 33.5978 15.1173 33.1172 13.4789 33.1172C11.6875 33.1172 10.8136 33.6633 9.9835 34.1658C9.19704 34.6246 8.45428 35.0615 7.01244 35.0615C5.54876 35.0615 4.82785 34.6246 4.04139 34.1658C3.10201 33.5978 2.18448 33.1172 0.546032 33.1172C0.28388 33.1172 0.0217285 33.3793 0.0217285 33.6415C0.0217285 33.8818 0.28388 34.1439 0.546032 34.1439Z" fill="#737373"/>
<path d="M39.4756 36.3069C37.6842 36.3069 36.8104 36.853 35.9802 37.3555C35.1938 37.8143 34.451 38.2512 33.0092 38.2512C31.5455 38.2512 30.8246 37.8143 30.0381 37.3555C29.0988 36.7875 28.1812 36.3069 26.5428 36.3069C24.7514 36.3069 23.8776 36.853 23.0474 37.3555C22.261 37.8143 21.5182 38.2512 20.0764 38.2512C18.6127 38.2512 17.8918 37.8143 17.1053 37.3555C16.1659 36.7875 15.2484 36.3069 13.61 36.3069C11.8186 36.3069 10.9447 36.853 10.1146 37.3555C9.32815 37.8143 8.58538 38.2512 7.14355 38.2512C5.70171 38.2512 4.95895 37.8143 4.17249 37.3555C3.23312 36.7875 2.31558 36.3069 0.677136 36.3069C0.414984 36.3069 0.152832 36.569 0.152832 36.8312C0.152832 37.0933 0.414984 37.3555 0.677136 37.3555C2.14082 37.3555 2.86173 37.7924 3.64819 38.2512C4.58757 38.8192 5.5051 39.2998 7.14355 39.2998C8.93492 39.2998 9.80876 38.7536 10.6389 38.2512C11.4254 37.7924 12.1681 37.3555 13.61 37.3555C15.0736 37.3555 15.7946 37.7924 16.581 38.2512C17.5204 38.8192 18.4379 39.2998 20.0764 39.2998C21.8677 39.2998 22.7416 38.7536 23.5717 38.2512L23.6591 38.2075C24.4019 37.7706 25.0791 37.3773 26.5428 37.3773C28.0065 37.3773 28.7274 37.8143 29.5138 38.273C30.4532 38.841 31.3707 39.3216 33.0092 39.3216C34.8006 39.3216 35.6744 38.7755 36.5046 38.273C37.291 37.8143 38.0338 37.3773 39.4756 37.3773C39.7378 37.3773 39.9999 37.1152 39.9999 36.853C39.9999 36.5472 39.7378 36.3069 39.4756 36.3069Z" fill="#737373"/>
</svg>
