<svg width="33" height="38" viewBox="0 0 33 38" fill="none" xmlns="http://www.w3.org/2000/svg">
<path d="M16.4989 29.9798C17.1183 29.9798 17.6204 29.4777 17.6204 28.8583C17.6204 28.2389 17.1183 27.7368 16.4989 27.7368C15.8795 27.7368 15.3774 28.2389 15.3774 28.8583C15.3774 29.4777 15.8795 29.9798 16.4989 29.9798Z" fill="#737373"/>
<path d="M32.8508 14.8398C28.5276 10.4443 22.7575 8.02051 16.6074 8.02051C10.3489 8.02051 4.48824 10.5348 0.147041 15.093C-0.0519303 15.292 -0.0519302 15.6357 0.16513 15.8347C0.27366 15.9251 0.400278 15.9794 0.526897 15.9794C0.671603 15.9794 0.798222 15.9251 0.906752 15.8166C5.04898 11.4754 10.6383 9.06963 16.6074 9.06963C22.4861 9.06963 27.985 11.3849 32.1091 15.5814C32.3081 15.7804 32.6337 15.7804 32.8508 15.5814C33.0497 15.3825 33.0497 15.0569 32.8508 14.8398Z" fill="#737373"/>
<path d="M16.6074 14.3877C12.0311 14.3877 7.78029 16.2327 4.63292 19.5971C4.43395 19.8142 4.45204 20.1398 4.65101 20.3388C4.75954 20.4292 4.88616 20.4835 5.01278 20.4835C5.15749 20.4835 5.2841 20.4292 5.39263 20.3207C8.34103 17.1733 12.3205 15.4368 16.6074 15.4368C20.7858 15.4368 24.6929 17.0829 27.6051 20.0855C27.8041 20.2845 28.1297 20.3026 28.3467 20.1036C28.5457 19.9046 28.5638 19.579 28.3648 19.362C25.2355 16.1423 21.0752 14.3877 16.6074 14.3877Z" fill="#737373"/>
<path d="M16.4989 20.9717C13.7856 20.9717 11.1447 22.1293 9.29972 24.1371C9.10075 24.3542 9.11884 24.6798 9.3359 24.8788C9.55296 25.0777 9.87855 25.0596 10.0775 24.8426C11.7597 23.0157 14.057 22.0208 16.517 22.0208C18.977 22.0208 21.2742 23.0157 22.9564 24.8426C23.0649 24.9511 23.1916 25.0054 23.3363 25.0054C23.4629 25.0054 23.5895 24.9511 23.698 24.8607C23.9151 24.6617 23.9151 24.3361 23.7342 24.1191C21.853 22.1112 19.2302 20.9717 16.4989 20.9717Z" fill="#737373"/>
</svg>
